{
	"patcher" : 	{
		"fileversion" : 1,
		"appversion" : 		{
			"major" : 8,
			"minor" : 1,
			"revision" : 1,
			"architecture" : "x64",
			"modernui" : 1
		}
,
		"classnamespace" : "box",
		"rect" : [ 84.0, 128.0, 1057.0, 638.0 ],
		"bglocked" : 0,
		"openinpresentation" : 0,
		"default_fontsize" : 12.0,
		"default_fontface" : 0,
		"default_fontname" : "Arial",
		"gridonopen" : 1,
		"gridsize" : [ 15.0, 15.0 ],
		"gridsnaponopen" : 1,
		"objectsnaponopen" : 1,
		"statusbarvisible" : 2,
		"toolbarvisible" : 1,
		"lefttoolbarpinned" : 0,
		"toptoolbarpinned" : 0,
		"righttoolbarpinned" : 0,
		"bottomtoolbarpinned" : 0,
		"toolbars_unpinned_last_save" : 0,
		"tallnewobj" : 0,
		"boxanimatetime" : 200,
		"enablehscroll" : 1,
		"enablevscroll" : 1,
		"devicewidth" : 0.0,
		"description" : "",
		"digest" : "",
		"tags" : "",
		"style" : "",
		"subpatcher_template" : "",
		"boxes" : [ 			{
				"box" : 				{
					"id" : "obj-25",
					"maxclass" : "comment",
					"numinlets" : 1,
					"numoutlets" : 0,
					"patching_rect" : [ 68.0, 9.0, 23.0, 20.0 ],
					"text" : "list"
				}

			}
, 			{
				"box" : 				{
					"id" : "obj-23",
					"maxclass" : "comment",
					"numinlets" : 1,
					"numoutlets" : 0,
					"patching_rect" : [ 272.47369384765625, 9.0, 88.0, 20.0 ],
					"text" : "reference pitch"
				}

			}
, 			{
				"box" : 				{
					"id" : "obj-37",
					"maxclass" : "newobj",
					"numinlets" : 2,
					"numoutlets" : 1,
					"outlettype" : [ "int" ],
					"patching_rect" : [ 354.25, 589.31585693359375, 29.5, 22.0 ],
					"text" : "+ 1"
				}

			}
, 			{
				"box" : 				{
					"id" : "obj-34",
					"maxclass" : "newobj",
					"numinlets" : 2,
					"numoutlets" : 1,
					"outlettype" : [ "int" ],
					"patching_rect" : [ 354.25, 556.0, 33.0, 22.0 ],
					"text" : "== 0"
				}

			}
, 			{
				"box" : 				{
					"id" : "obj-32",
					"maxclass" : "newobj",
					"numinlets" : 2,
					"numoutlets" : 2,
					"outlettype" : [ "", "" ],
					"patching_rect" : [ 354.25, 618.31585693359375, 51.0, 22.0 ],
					"text" : "gate 2"
				}

			}
, 			{
				"box" : 				{
					"id" : "obj-58",
					"maxclass" : "newobj",
					"numinlets" : 2,
					"numoutlets" : 1,
					"outlettype" : [ "int" ],
					"patching_rect" : [ 354.25, 648.6317138671875, 29.5, 22.0 ],
					"text" : "- 1"
				}

			}
, 			{
				"box" : 				{
					"id" : "obj-46",
					"linecount" : 3,
					"maxclass" : "newobj",
					"numinlets" : 2,
					"numoutlets" : 2,
					"outlettype" : [ "", "" ],
					"patching_rect" : [ 320.25, 463.0, 85.0, 49.0 ],
					"text" : "if $i2>=0 then $i1 else out2 $i1"
				}

			}
, 			{
				"box" : 				{
					"id" : "obj-22",
					"maxclass" : "newobj",
					"numinlets" : 1,
					"numoutlets" : 1,
					"outlettype" : [ "int" ],
					"patching_rect" : [ 476.0, 520.0, 28.0, 22.0 ],
					"text" : "abs"
				}

			}
, 			{
				"box" : 				{
					"id" : "obj-15",
					"maxclass" : "newobj",
					"numinlets" : 2,
					"numoutlets" : 1,
					"outlettype" : [ "int" ],
					"patching_rect" : [ 476.0, 556.0, 29.5, 22.0 ],
					"text" : "!-"
				}

			}
, 			{
				"box" : 				{
					"id" : "obj-14",
					"linecount" : 3,
					"maxclass" : "newobj",
					"numinlets" : 1,
					"numoutlets" : 2,
					"outlettype" : [ "", "" ],
					"patching_rect" : [ 410.0, 463.0, 85.0, 49.0 ],
					"text" : "if $i1>=0 then $i1 else out2 $i1"
				}

			}
, 			{
				"box" : 				{
					"id" : "obj-13",
					"maxclass" : "newobj",
					"numinlets" : 1,
					"numoutlets" : 1,
					"outlettype" : [ "" ],
					"patching_rect" : [ 29.0, 836.96490478515625, 28.0, 22.0 ],
					"text" : "in 3"
				}

			}
, 			{
				"box" : 				{
					"id" : "obj-33",
					"maxclass" : "newobj",
					"numinlets" : 3,
					"numoutlets" : 1,
					"outlettype" : [ "" ],
					"patching_rect" : [ 184.0, 848.96490478515625, 111.0, 22.0 ],
					"saved_object_attributes" : 					{
						"versionnumber" : 80001
					}
,
					"text" : "bach.collect @out t"
				}

			}
, 			{
				"box" : 				{
					"id" : "obj-12",
					"maxclass" : "newobj",
					"numinlets" : 1,
					"numoutlets" : 2,
					"outlettype" : [ "int", "int" ],
					"patching_rect" : [ 320.25, 689.31585693359375, 44.75, 22.0 ],
					"text" : "t i i"
				}

			}
, 			{
				"box" : 				{
					"id" : "obj-11",
					"linecount" : 2,
					"maxclass" : "newobj",
					"numinlets" : 2,
					"numoutlets" : 2,
					"outlettype" : [ "", "" ],
					"patching_rect" : [ 230.0, 759.24560546875, 109.25, 35.0 ],
					"text" : "if $i2!=0 then $f1 else out2 $f1"
				}

			}
, 			{
				"box" : 				{
					"id" : "obj-10",
					"maxclass" : "newobj",
					"numinlets" : 2,
					"numoutlets" : 1,
					"outlettype" : [ "int" ],
					"patching_rect" : [ 320.25, 435.157958984375, 29.5, 22.0 ],
					"text" : "/"
				}

			}
, 			{
				"box" : 				{
					"id" : "obj-8",
					"maxclass" : "newobj",
					"numinlets" : 2,
					"numoutlets" : 1,
					"outlettype" : [ "int" ],
					"patching_rect" : [ 410.0, 589.31585693359375, 29.5, 22.0 ],
					"text" : "+ 1"
				}

			}
, 			{
				"box" : 				{
					"id" : "obj-7",
					"maxclass" : "newobj",
					"numinlets" : 2,
					"numoutlets" : 2,
					"outlettype" : [ "", "" ],
					"patching_rect" : [ 527.350830078125, 387.175445556640625, 37.0, 22.0 ],
					"text" : "zl len"
				}

			}
, 			{
				"box" : 				{
					"id" : "obj-5",
					"maxclass" : "newobj",
					"numinlets" : 2,
					"numoutlets" : 1,
					"outlettype" : [ "int" ],
					"patching_rect" : [ 410.0, 435.157958984375, 29.5, 22.0 ],
					"text" : "%"
				}

			}
, 			{
				"box" : 				{
					"id" : "obj-4",
					"maxclass" : "newobj",
					"numinlets" : 2,
					"numoutlets" : 2,
					"outlettype" : [ "", "" ],
					"patching_rect" : [ 230.0, 435.157958984375, 38.0, 22.0 ],
					"text" : "zl reg"
				}

			}
, 			{
				"box" : 				{
					"id" : "obj-3",
					"maxclass" : "newobj",
					"numinlets" : 2,
					"numoutlets" : 2,
					"outlettype" : [ "", "" ],
					"patching_rect" : [ 230.0, 728.1053466796875, 37.0, 22.0 ],
					"text" : "zl nth"
				}

			}
, 			{
				"box" : 				{
					"id" : "obj-2",
					"maxclass" : "newobj",
					"numinlets" : 3,
					"numoutlets" : 1,
					"outlettype" : [ "" ],
					"patching_rect" : [ 230.0, 811.42108154296875, 251.0, 22.0 ],
					"text" : "expr $f1+($f3*$f2)"
				}

			}
, 			{
				"box" : 				{
					"id" : "obj-539",
					"maxclass" : "newobj",
					"numinlets" : 1,
					"numoutlets" : 4,
					"outlettype" : [ "bang", "int", "int", "int" ],
					"patching_rect" : [ 230.0, 387.4210205078125, 289.0, 22.0 ],
					"text" : "t b i i i"
				}

			}
, 			{
				"box" : 				{
					"id" : "obj-537",
					"maxclass" : "newobj",
					"numinlets" : 2,
					"numoutlets" : 3,
					"outlettype" : [ "bang", "bang", "int" ],
					"patching_rect" : [ 202.0, 327.84210205078125, 47.0, 22.0 ],
					"text" : "uzi 128"
				}

			}
, 			{
				"box" : 				{
					"id" : "obj-497",
					"maxclass" : "newobj",
					"numinlets" : 3,
					"numoutlets" : 2,
					"outlettype" : [ "", "" ],
					"patcher" : 					{
						"fileversion" : 1,
						"appversion" : 						{
							"major" : 8,
							"minor" : 1,
							"revision" : 1,
							"architecture" : "x64",
							"modernui" : 1
						}
,
						"classnamespace" : "box",
						"rect" : [ 59.0, 103.0, 1187.0, 663.0 ],
						"bglocked" : 0,
						"openinpresentation" : 0,
						"default_fontsize" : 12.0,
						"default_fontface" : 0,
						"default_fontname" : "Arial",
						"gridonopen" : 1,
						"gridsize" : [ 15.0, 15.0 ],
						"gridsnaponopen" : 1,
						"objectsnaponopen" : 1,
						"statusbarvisible" : 2,
						"toolbarvisible" : 1,
						"lefttoolbarpinned" : 0,
						"toptoolbarpinned" : 0,
						"righttoolbarpinned" : 0,
						"bottomtoolbarpinned" : 0,
						"toolbars_unpinned_last_save" : 0,
						"tallnewobj" : 0,
						"boxanimatetime" : 200,
						"enablehscroll" : 1,
						"enablevscroll" : 1,
						"devicewidth" : 0.0,
						"description" : "",
						"digest" : "",
						"tags" : "",
						"style" : "",
						"subpatcher_template" : "",
						"visible" : 1,
						"boxes" : [ 							{
								"box" : 								{
									"id" : "obj-7",
									"maxclass" : "comment",
									"numinlets" : 1,
									"numoutlets" : 0,
									"patching_rect" : [ 639.47509765625, 468.561920166015625, 78.0, 20.0 ],
									"text" : "<--- O(nlogn)"
								}

							}
, 							{
								"box" : 								{
									"id" : "obj-5",
									"maxclass" : "comment",
									"numinlets" : 1,
									"numoutlets" : 0,
									"patching_rect" : [ 946.0, 377.174224853515625, 135.0, 20.0 ],
									"text" : "psuedo-octave distance"
								}

							}
, 							{
								"box" : 								{
									"comment" : "",
									"id" : "obj-8",
									"index" : 2,
									"maxclass" : "outlet",
									"numinlets" : 1,
									"numoutlets" : 0,
									"patching_rect" : [ 949.78509521484375, 342.174224853515625, 30.0, 30.0 ]
								}

							}
, 							{
								"box" : 								{
									"id" : "obj-6",
									"maxclass" : "comment",
									"numinlets" : 1,
									"numoutlets" : 0,
									"patching_rect" : [ 159.688720703125, 1128.3333740234375, 64.0, 20.0 ],
									"text" : "start index"
								}

							}
, 							{
								"box" : 								{
									"id" : "obj-4",
									"maxclass" : "comment",
									"numinlets" : 1,
									"numoutlets" : 0,
									"patching_rect" : [ 854.348876953125, 15.000003814697266, 63.0, 20.0 ],
									"text" : "master ref"
								}

							}
, 							{
								"box" : 								{
									"id" : "obj-3",
									"maxclass" : "comment",
									"numinlets" : 1,
									"numoutlets" : 0,
									"patching_rect" : [ 503.4952392578125, 15.000003814697266, 59.0, 20.0 ],
									"text" : "just cents"
								}

							}
, 							{
								"box" : 								{
									"id" : "obj-2",
									"maxclass" : "comment",
									"numinlets" : 1,
									"numoutlets" : 0,
									"patching_rect" : [ 641.80029296875, 15.000003814697266, 73.0, 20.0 ],
									"text" : "list unedited"
								}

							}
, 							{
								"box" : 								{
									"id" : "obj-458",
									"linecount" : 3,
									"maxclass" : "comment",
									"numinlets" : 1,
									"numoutlets" : 0,
									"patching_rect" : [ 175.188720703125, 584.90478515625, 232.0, 47.0 ],
									"text" : "1 - within the list\n2 - between this list and an octave below\n3 - between this list and an octave above"
								}

							}
, 							{
								"box" : 								{
									"id" : "obj-446",
									"maxclass" : "newobj",
									"numinlets" : 2,
									"numoutlets" : 1,
									"outlettype" : [ "float" ],
									"patching_rect" : [ 571.97509765625, 819.1839599609375, 29.5, 22.0 ],
									"text" : "+ 0."
								}

							}
, 							{
								"box" : 								{
									"id" : "obj-445",
									"maxclass" : "message",
									"numinlets" : 2,
									"numoutlets" : 1,
									"outlettype" : [ "" ],
									"patching_rect" : [ 571.97509765625, 742.0018310546875, 29.5, 22.0 ],
									"text" : "$1"
								}

							}
, 							{
								"box" : 								{
									"id" : "obj-444",
									"maxclass" : "newobj",
									"numinlets" : 2,
									"numoutlets" : 1,
									"outlettype" : [ "int" ],
									"patching_rect" : [ 711.62548828125, 780.517333984375, 29.5, 22.0 ],
									"text" : "+ 1"
								}

							}
, 							{
								"box" : 								{
									"id" : "obj-443",
									"maxclass" : "newobj",
									"numinlets" : 2,
									"numoutlets" : 1,
									"outlettype" : [ "int" ],
									"patching_rect" : [ 711.62548828125, 742.0018310546875, 37.5, 22.0 ],
									"text" : "i"
								}

							}
, 							{
								"box" : 								{
									"id" : "obj-442",
									"maxclass" : "message",
									"numinlets" : 2,
									"numoutlets" : 1,
									"outlettype" : [ "" ],
									"patching_rect" : [ 641.80029296875, 780.517333984375, 29.5, 22.0 ],
									"text" : "$1"
								}

							}
, 							{
								"box" : 								{
									"id" : "obj-440",
									"maxclass" : "newobj",
									"numinlets" : 2,
									"numoutlets" : 2,
									"outlettype" : [ "", "" ],
									"patching_rect" : [ 641.80029296875, 742.0018310546875, 45.0, 22.0 ],
									"text" : "zl rot 1"
								}

							}
, 							{
								"box" : 								{
									"id" : "obj-439",
									"maxclass" : "newobj",
									"numinlets" : 1,
									"numoutlets" : 3,
									"outlettype" : [ "", "", "bang" ],
									"patching_rect" : [ 571.97509765625, 713.1171875, 158.650390625, 22.0 ],
									"text" : "t l l b"
								}

							}
, 							{
								"box" : 								{
									"id" : "obj-436",
									"linecount" : 2,
									"maxclass" : "newobj",
									"numinlets" : 2,
									"numoutlets" : 1,
									"outlettype" : [ "" ],
									"patching_rect" : [ 373.5819091796875, 820.1839599609375, 72.0, 35.0 ],
									"text" : "expr $f1+($f2*-1)"
								}

							}
, 							{
								"box" : 								{
									"id" : "obj-435",
									"maxclass" : "message",
									"numinlets" : 2,
									"numoutlets" : 1,
									"outlettype" : [ "" ],
									"patching_rect" : [ 373.5819091796875, 780.517333984375, 29.5, 22.0 ],
									"text" : "$1"
								}

							}
, 							{
								"box" : 								{
									"id" : "obj-433",
									"maxclass" : "newobj",
									"numinlets" : 1,
									"numoutlets" : 2,
									"outlettype" : [ "", "" ],
									"patching_rect" : [ 175.188720703125, 713.1171875, 29.5, 22.0 ],
									"text" : "t l l"
								}

							}
, 							{
								"box" : 								{
									"id" : "obj-430",
									"maxclass" : "newobj",
									"numinlets" : 2,
									"numoutlets" : 2,
									"outlettype" : [ "", "" ],
									"patching_rect" : [ 373.5819091796875, 742.0018310546875, 45.0, 22.0 ],
									"text" : "zl rot 1"
								}

							}
, 							{
								"box" : 								{
									"id" : "obj-427",
									"maxclass" : "message",
									"numinlets" : 2,
									"numoutlets" : 1,
									"outlettype" : [ "" ],
									"patching_rect" : [ 439.9071044921875, 742.0018310546875, 29.5, 22.0 ],
									"text" : "$1"
								}

							}
, 							{
								"box" : 								{
									"id" : "obj-425",
									"maxclass" : "newobj",
									"numinlets" : 1,
									"numoutlets" : 3,
									"outlettype" : [ "", "", "int" ],
									"patching_rect" : [ 373.5819091796875, 713.1171875, 151.650482177734375, 22.0 ],
									"text" : "t l l 1"
								}

							}
, 							{
								"box" : 								{
									"id" : "obj-424",
									"maxclass" : "newobj",
									"numinlets" : 1,
									"numoutlets" : 2,
									"outlettype" : [ "int", "int" ],
									"patching_rect" : [ 528.4952392578125, 409.828582763671875, 29.5, 22.0 ],
									"text" : "t i i"
								}

							}
, 							{
								"box" : 								{
									"id" : "obj-419",
									"maxclass" : "newobj",
									"numinlets" : 2,
									"numoutlets" : 1,
									"outlettype" : [ "int" ],
									"patching_rect" : [ 775.601318359375, 640.001953125, 29.5, 22.0 ],
									"text" : "+ 2"
								}

							}
, 							{
								"box" : 								{
									"id" : "obj-418",
									"maxclass" : "newobj",
									"numinlets" : 1,
									"numoutlets" : 2,
									"outlettype" : [ "int", "int" ],
									"patching_rect" : [ 587.47509765625, 609.90478515625, 29.5, 22.0 ],
									"text" : "t i 1"
								}

							}
, 							{
								"box" : 								{
									"id" : "obj-417",
									"maxclass" : "newobj",
									"numinlets" : 2,
									"numoutlets" : 3,
									"outlettype" : [ "", "", "" ],
									"patching_rect" : [ 175.188720703125, 678.8369140625, 415.786407470703125, 22.0 ],
									"text" : "gate 3"
								}

							}
, 							{
								"box" : 								{
									"id" : "obj-414",
									"maxclass" : "newobj",
									"numinlets" : 2,
									"numoutlets" : 1,
									"outlettype" : [ "int" ],
									"patching_rect" : [ 757.15478515625, 535.1475830078125, 29.5, 22.0 ],
									"text" : "+ 1"
								}

							}
, 							{
								"box" : 								{
									"id" : "obj-413",
									"maxclass" : "newobj",
									"numinlets" : 2,
									"numoutlets" : 2,
									"outlettype" : [ "", "" ],
									"patching_rect" : [ 587.47509765625, 574.953369140625, 188.679611206054688, 22.0 ],
									"text" : "if $i1!=$i2 then $i1 else out2 $i2"
								}

							}
, 							{
								"box" : 								{
									"id" : "obj-406",
									"maxclass" : "newobj",
									"numinlets" : 2,
									"numoutlets" : 1,
									"outlettype" : [ "int" ],
									"patching_rect" : [ 775.601318359375, 609.90478515625, 29.5, 22.0 ],
									"text" : "!= 1"
								}

							}
, 							{
								"box" : 								{
									"id" : "obj-405",
									"maxclass" : "newobj",
									"numinlets" : 1,
									"numoutlets" : 2,
									"outlettype" : [ "", "" ],
									"patching_rect" : [ 587.47509765625, 535.1475830078125, 159.0, 22.0 ],
									"text" : "if $i1!=1 then $i1 else out2 1"
								}

							}
, 							{
								"box" : 								{
									"id" : "obj-397",
									"maxclass" : "newobj",
									"numinlets" : 1,
									"numoutlets" : 2,
									"outlettype" : [ "", "" ],
									"patching_rect" : [ 517.9952392578125, 342.174224853515625, 29.5, 22.0 ],
									"text" : "t l l"
								}

							}
, 							{
								"box" : 								{
									"id" : "obj-373",
									"maxclass" : "newobj",
									"numinlets" : 1,
									"numoutlets" : 3,
									"outlettype" : [ "float", "float", "float" ],
									"patching_rect" : [ 870.848876953125, 103.0, 70.14306640625, 22.0 ],
									"text" : "t f f f"
								}

							}
, 							{
								"box" : 								{
									"id" : "obj-368",
									"maxclass" : "newobj",
									"numinlets" : 2,
									"numoutlets" : 1,
									"outlettype" : [ "int" ],
									"patching_rect" : [ 175.188720703125, 1008.055419921875, 29.5, 22.0 ],
									"text" : "- 1"
								}

							}
, 							{
								"box" : 								{
									"id" : "obj-355",
									"maxclass" : "newobj",
									"numinlets" : 2,
									"numoutlets" : 1,
									"outlettype" : [ "float" ],
									"patching_rect" : [ 921.991943359375, 535.1475830078125, 29.5, 22.0 ],
									"text" : "* 2."
								}

							}
, 							{
								"box" : 								{
									"id" : "obj-350",
									"maxclass" : "newobj",
									"numinlets" : 3,
									"numoutlets" : 1,
									"outlettype" : [ "" ],
									"patching_rect" : [ 175.188720703125, 1045.1087646484375, 725.613037109375, 22.0 ],
									"text" : "expr ($i1+($i2*$i3)) -1"
								}

							}
, 							{
								"box" : 								{
									"id" : "obj-349",
									"maxclass" : "newobj",
									"numinlets" : 2,
									"numoutlets" : 2,
									"outlettype" : [ "", "" ],
									"patching_rect" : [ 528.4952392578125, 377.174224853515625, 37.0, 22.0 ],
									"text" : "zl len"
								}

							}
, 							{
								"box" : 								{
									"id" : "obj-339",
									"linecount" : 2,
									"maxclass" : "newobj",
									"numinlets" : 2,
									"numoutlets" : 2,
									"outlettype" : [ "", "" ],
									"patching_rect" : [ 175.188720703125, 968.1087646484375, 156.0, 35.0 ],
									"text" : "if $i1==1 then $i2 else out2 $i2"
								}

							}
, 							{
								"box" : 								{
									"id" : "obj-330",
									"maxclass" : "newobj",
									"numinlets" : 2,
									"numoutlets" : 1,
									"outlettype" : [ "int" ],
									"patching_rect" : [ 175.188720703125, 939.4088134765625, 29.5, 22.0 ],
									"text" : "> 0."
								}

							}
, 							{
								"box" : 								{
									"id" : "obj-327",
									"maxclass" : "newobj",
									"numinlets" : 2,
									"numoutlets" : 1,
									"outlettype" : [ "float" ],
									"patching_rect" : [ 175.188720703125, 895.313720703125, 85.1583251953125, 22.0 ],
									"text" : "+ 0."
								}

							}
, 							{
								"box" : 								{
									"id" : "obj-326",
									"maxclass" : "newobj",
									"numinlets" : 2,
									"numoutlets" : 2,
									"outlettype" : [ "", "" ],
									"patching_rect" : [ 241.3470458984375, 780.517333984375, 37.0, 22.0 ],
									"text" : "zl nth"
								}

							}
, 							{
								"box" : 								{
									"id" : "obj-325",
									"maxclass" : "newobj",
									"numinlets" : 2,
									"numoutlets" : 1,
									"outlettype" : [ "int" ],
									"patching_rect" : [ 209.8470458984375, 742.0018310546875, 29.5, 22.0 ],
									"text" : "- 1"
								}

							}
, 							{
								"box" : 								{
									"id" : "obj-323",
									"maxclass" : "newobj",
									"numinlets" : 1,
									"numoutlets" : 3,
									"outlettype" : [ "int", "int", "int" ],
									"patching_rect" : [ 209.8470458984375, 713.1171875, 118.0, 22.0 ],
									"text" : "t i i i"
								}

							}
, 							{
								"box" : 								{
									"id" : "obj-322",
									"maxclass" : "newobj",
									"numinlets" : 2,
									"numoutlets" : 2,
									"outlettype" : [ "", "" ],
									"patching_rect" : [ 175.188720703125, 780.517333984375, 53.353515625, 22.0 ],
									"text" : "zl nth"
								}

							}
, 							{
								"box" : 								{
									"id" : "obj-321",
									"maxclass" : "newobj",
									"numinlets" : 1,
									"numoutlets" : 2,
									"outlettype" : [ "", "" ],
									"patching_rect" : [ 571.97509765625, 409.828582763671875, 34.5, 22.0 ],
									"text" : "t l l"
								}

							}
, 							{
								"box" : 								{
									"id" : "obj-320",
									"maxclass" : "newobj",
									"numinlets" : 2,
									"numoutlets" : 2,
									"outlettype" : [ "", "" ],
									"patching_rect" : [ 587.47509765625, 503.6475830078125, 40.0, 22.0 ],
									"text" : "zl sub"
								}

							}
, 							{
								"box" : 								{
									"id" : "obj-319",
									"maxclass" : "newobj",
									"numinlets" : 2,
									"numoutlets" : 2,
									"outlettype" : [ "", "" ],
									"patching_rect" : [ 587.47509765625, 468.561920166015625, 41.0, 22.0 ],
									"text" : "zl sort"
								}

							}
, 							{
								"box" : 								{
									"id" : "obj-318",
									"maxclass" : "newobj",
									"numinlets" : 2,
									"numoutlets" : 2,
									"outlettype" : [ "", "" ],
									"patching_rect" : [ 587.47509765625, 438.819000244140625, 39.0, 22.0 ],
									"text" : "zl join"
								}

							}
, 							{
								"box" : 								{
									"id" : "obj-315",
									"maxclass" : "newobj",
									"numinlets" : 1,
									"numoutlets" : 2,
									"outlettype" : [ "float", "float" ],
									"patching_rect" : [ 661.47509765625, 165.400054931640625, 86.650001525878906, 22.0 ],
									"text" : "unpack 0. 0."
								}

							}
, 							{
								"box" : 								{
									"id" : "obj-314",
									"maxclass" : "newobj",
									"numinlets" : 1,
									"numoutlets" : 2,
									"outlettype" : [ "", "" ],
									"patching_rect" : [ 661.47509765625, 134.571441650390625, 131.5, 22.0 ],
									"text" : "t l l"
								}

							}
, 							{
								"box" : 								{
									"id" : "obj-313",
									"linecount" : 3,
									"maxclass" : "newobj",
									"numinlets" : 2,
									"numoutlets" : 1,
									"outlettype" : [ "" ],
									"patching_rect" : [ 661.47509765625, 205.145599365234375, 86.650001525878906, 49.0 ],
									"text" : "expr (12*log($f2/440))/(log(2))-$f1"
								}

							}
, 							{
								"box" : 								{
									"id" : "obj-102",
									"maxclass" : "newobj",
									"numinlets" : 3,
									"numoutlets" : 1,
									"outlettype" : [ "" ],
									"patching_rect" : [ 571.97509765625, 377.174224853515625, 198.0, 22.0 ],
									"text" : "vexpr $f1+($f2*$f3) @scalarmode 1"
								}

							}
, 							{
								"box" : 								{
									"id" : "obj-300",
									"maxclass" : "newobj",
									"numinlets" : 2,
									"numoutlets" : 1,
									"outlettype" : [ "int" ],
									"patching_rect" : [ 773.97509765625, 308.602752685546875, 29.5, 22.0 ],
									"text" : "- 1"
								}

							}
, 							{
								"box" : 								{
									"id" : "obj-299",
									"maxclass" : "newobj",
									"numinlets" : 2,
									"numoutlets" : 1,
									"outlettype" : [ "int" ],
									"patching_rect" : [ 896.42041015625, 235.259918212890625, 29.5, 22.0 ],
									"text" : "+ 1"
								}

							}
, 							{
								"box" : 								{
									"id" : "obj-298",
									"maxclass" : "newobj",
									"numinlets" : 2,
									"numoutlets" : 1,
									"outlettype" : [ "int" ],
									"patching_rect" : [ 896.42041015625, 205.145599365234375, 29.5, 22.0 ],
									"text" : "<"
								}

							}
, 							{
								"box" : 								{
									"id" : "obj-297",
									"maxclass" : "newobj",
									"numinlets" : 2,
									"numoutlets" : 2,
									"outlettype" : [ "", "" ],
									"patching_rect" : [ 750.97509765625, 278.602752685546875, 42.0, 22.0 ],
									"text" : "gate 2"
								}

							}
, 							{
								"box" : 								{
									"id" : "obj-294",
									"maxclass" : "newobj",
									"numinlets" : 1,
									"numoutlets" : 3,
									"outlettype" : [ "float", "float", "float" ],
									"patching_rect" : [ 773.97509765625, 165.400054931640625, 87.0, 22.0 ],
									"text" : "unpack 0. 0. 0."
								}

							}
, 							{
								"box" : 								{
									"id" : "obj-293",
									"maxclass" : "newobj",
									"numinlets" : 1,
									"numoutlets" : 2,
									"outlettype" : [ "int", "int" ],
									"patching_rect" : [ 750.72509765625, 342.174224853515625, 149.963623046875, 22.0 ],
									"text" : "t i i"
								}

							}
, 							{
								"box" : 								{
									"id" : "obj-292",
									"linecount" : 3,
									"maxclass" : "newobj",
									"numinlets" : 3,
									"numoutlets" : 1,
									"outlettype" : [ "" ],
									"patching_rect" : [ 773.97509765625, 205.145599365234375, 115.873786926269531, 49.0 ],
									"text" : "expr ($f3-$f1)/((12*log($f2/440))/(log(2))-$f1)"
								}

							}
, 							{
								"box" : 								{
									"id" : "obj-289",
									"maxclass" : "message",
									"numinlets" : 2,
									"numoutlets" : 1,
									"outlettype" : [ "" ],
									"patching_rect" : [ 661.47509765625, 103.0, 55.0, 22.0 ],
									"text" : "$3 $2 $3"
								}

							}
, 							{
								"box" : 								{
									"comment" : "",
									"id" : "obj-493",
									"index" : 1,
									"maxclass" : "inlet",
									"numinlets" : 0,
									"numoutlets" : 1,
									"outlettype" : [ "" ],
									"patching_rect" : [ 517.9952392578125, 43.0, 30.0, 30.0 ]
								}

							}
, 							{
								"box" : 								{
									"comment" : "",
									"id" : "obj-494",
									"index" : 2,
									"maxclass" : "inlet",
									"numinlets" : 0,
									"numoutlets" : 1,
									"outlettype" : [ "" ],
									"patching_rect" : [ 661.47509765625, 43.0, 30.0, 30.0 ]
								}

							}
, 							{
								"box" : 								{
									"comment" : "",
									"id" : "obj-495",
									"index" : 3,
									"maxclass" : "inlet",
									"numinlets" : 0,
									"numoutlets" : 1,
									"outlettype" : [ "float" ],
									"patching_rect" : [ 870.848876953125, 43.0, 30.0, 30.0 ]
								}

							}
, 							{
								"box" : 								{
									"comment" : "",
									"id" : "obj-496",
									"index" : 1,
									"maxclass" : "outlet",
									"numinlets" : 1,
									"numoutlets" : 0,
									"patching_rect" : [ 175.188720703125, 1089.775390625, 30.0, 30.0 ]
								}

							}
 ],
						"lines" : [ 							{
								"patchline" : 								{
									"destination" : [ "obj-321", 0 ],
									"source" : [ "obj-102", 0 ]
								}

							}
, 							{
								"patchline" : 								{
									"destination" : [ "obj-314", 0 ],
									"source" : [ "obj-289", 0 ]
								}

							}
, 							{
								"patchline" : 								{
									"destination" : [ "obj-297", 1 ],
									"source" : [ "obj-292", 0 ]
								}

							}
, 							{
								"patchline" : 								{
									"destination" : [ "obj-102", 2 ],
									"source" : [ "obj-293", 0 ]
								}

							}
, 							{
								"patchline" : 								{
									"destination" : [ "obj-350", 2 ],
									"source" : [ "obj-293", 1 ]
								}

							}
, 							{
								"patchline" : 								{
									"destination" : [ "obj-292", 1 ],
									"midpoints" : [ 817.47509765625, 197.173657536506653, 831.911991119384766, 197.173657536506653 ],
									"source" : [ "obj-294", 1 ]
								}

							}
, 							{
								"patchline" : 								{
									"destination" : [ "obj-292", 0 ],
									"source" : [ "obj-294", 0 ]
								}

							}
, 							{
								"patchline" : 								{
									"destination" : [ "obj-298", 1 ],
									"midpoints" : [ 851.47509765625, 196.412636578083038, 916.42041015625, 196.412636578083038 ],
									"source" : [ "obj-294", 2 ]
								}

							}
, 							{
								"patchline" : 								{
									"destination" : [ "obj-293", 0 ],
									"source" : [ "obj-297", 0 ]
								}

							}
, 							{
								"patchline" : 								{
									"destination" : [ "obj-300", 0 ],
									"source" : [ "obj-297", 1 ]
								}

							}
, 							{
								"patchline" : 								{
									"destination" : [ "obj-299", 0 ],
									"source" : [ "obj-298", 0 ]
								}

							}
, 							{
								"patchline" : 								{
									"destination" : [ "obj-297", 0 ],
									"midpoints" : [ 905.92041015625, 271.094284892082214, 760.47509765625, 271.094284892082214 ],
									"source" : [ "obj-299", 0 ]
								}

							}
, 							{
								"patchline" : 								{
									"destination" : [ "obj-293", 0 ],
									"midpoints" : [ 783.47509765625, 335.88848876953125, 760.22509765625, 335.88848876953125 ],
									"source" : [ "obj-300", 0 ]
								}

							}
, 							{
								"patchline" : 								{
									"destination" : [ "obj-102", 1 ],
									"order" : 1,
									"source" : [ "obj-313", 0 ]
								}

							}
, 							{
								"patchline" : 								{
									"destination" : [ "obj-436", 1 ],
									"midpoints" : [ 670.97509765625, 262.400000035762787, 153.833333492279053, 262.400000035762787, 153.833333492279053, 810.333333253860474, 436.0819091796875, 810.333333253860474 ],
									"order" : 3,
									"source" : [ "obj-313", 0 ]
								}

							}
, 							{
								"patchline" : 								{
									"destination" : [ "obj-446", 1 ],
									"midpoints" : [ 670.97509765625, 262.399999856948853, 153.833333492279053, 262.399999856948853, 153.833333492279053, 810.999999940395355, 359.0, 810.999999940395355, 359.0, 810.666666597127914, 591.97509765625, 810.666666597127914 ],
									"order" : 2,
									"source" : [ "obj-313", 0 ]
								}

							}
, 							{
								"patchline" : 								{
									"destination" : [ "obj-8", 0 ],
									"midpoints" : [ 670.97509765625, 262.899245917797089, 959.28509521484375, 262.899245917797089 ],
									"order" : 0,
									"source" : [ "obj-313", 0 ]
								}

							}
, 							{
								"patchline" : 								{
									"destination" : [ "obj-294", 0 ],
									"source" : [ "obj-314", 1 ]
								}

							}
, 							{
								"patchline" : 								{
									"destination" : [ "obj-315", 0 ],
									"source" : [ "obj-314", 0 ]
								}

							}
, 							{
								"patchline" : 								{
									"destination" : [ "obj-313", 1 ],
									"source" : [ "obj-315", 1 ]
								}

							}
, 							{
								"patchline" : 								{
									"destination" : [ "obj-313", 0 ],
									"source" : [ "obj-315", 0 ]
								}

							}
, 							{
								"patchline" : 								{
									"destination" : [ "obj-319", 0 ],
									"source" : [ "obj-318", 0 ]
								}

							}
, 							{
								"patchline" : 								{
									"destination" : [ "obj-320", 0 ],
									"source" : [ "obj-319", 0 ]
								}

							}
, 							{
								"patchline" : 								{
									"destination" : [ "obj-405", 0 ],
									"source" : [ "obj-320", 0 ]
								}

							}
, 							{
								"patchline" : 								{
									"destination" : [ "obj-318", 0 ],
									"source" : [ "obj-321", 1 ]
								}

							}
, 							{
								"patchline" : 								{
									"destination" : [ "obj-417", 1 ],
									"source" : [ "obj-321", 0 ]
								}

							}
, 							{
								"patchline" : 								{
									"destination" : [ "obj-327", 0 ],
									"source" : [ "obj-322", 0 ]
								}

							}
, 							{
								"patchline" : 								{
									"destination" : [ "obj-325", 0 ],
									"source" : [ "obj-323", 0 ]
								}

							}
, 							{
								"patchline" : 								{
									"destination" : [ "obj-326", 1 ],
									"source" : [ "obj-323", 1 ]
								}

							}
, 							{
								"patchline" : 								{
									"destination" : [ "obj-339", 1 ],
									"source" : [ "obj-323", 2 ]
								}

							}
, 							{
								"patchline" : 								{
									"destination" : [ "obj-322", 1 ],
									"source" : [ "obj-325", 0 ]
								}

							}
, 							{
								"patchline" : 								{
									"destination" : [ "obj-327", 1 ],
									"source" : [ "obj-326", 0 ]
								}

							}
, 							{
								"patchline" : 								{
									"destination" : [ "obj-330", 0 ],
									"source" : [ "obj-327", 0 ]
								}

							}
, 							{
								"patchline" : 								{
									"destination" : [ "obj-339", 0 ],
									"source" : [ "obj-330", 0 ]
								}

							}
, 							{
								"patchline" : 								{
									"destination" : [ "obj-350", 0 ],
									"midpoints" : [ 321.688720703125, 1035.477569580078125, 184.688720703125, 1035.477569580078125 ],
									"source" : [ "obj-339", 1 ]
								}

							}
, 							{
								"patchline" : 								{
									"destination" : [ "obj-368", 0 ],
									"source" : [ "obj-339", 0 ]
								}

							}
, 							{
								"patchline" : 								{
									"destination" : [ "obj-424", 0 ],
									"source" : [ "obj-349", 0 ]
								}

							}
, 							{
								"patchline" : 								{
									"destination" : [ "obj-496", 0 ],
									"source" : [ "obj-350", 0 ]
								}

							}
, 							{
								"patchline" : 								{
									"destination" : [ "obj-330", 1 ],
									"midpoints" : [ 931.491943359375, 927.574736714363098, 195.188720703125, 927.574736714363098 ],
									"source" : [ "obj-355", 0 ]
								}

							}
, 							{
								"patchline" : 								{
									"destination" : [ "obj-350", 0 ],
									"source" : [ "obj-368", 0 ]
								}

							}
, 							{
								"patchline" : 								{
									"destination" : [ "obj-292", 2 ],
									"source" : [ "obj-373", 0 ]
								}

							}
, 							{
								"patchline" : 								{
									"destination" : [ "obj-298", 0 ],
									"source" : [ "obj-373", 1 ]
								}

							}
, 							{
								"patchline" : 								{
									"destination" : [ "obj-318", 1 ],
									"midpoints" : [ 931.491943359375, 431.109510540962219, 616.97509765625, 431.109510540962219 ],
									"order" : 2,
									"source" : [ "obj-373", 2 ]
								}

							}
, 							{
								"patchline" : 								{
									"destination" : [ "obj-320", 1 ],
									"midpoints" : [ 931.491943359375, 497.590489864349365, 617.97509765625, 497.590489864349365 ],
									"order" : 1,
									"source" : [ "obj-373", 2 ]
								}

							}
, 							{
								"patchline" : 								{
									"destination" : [ "obj-355", 0 ],
									"order" : 0,
									"source" : [ "obj-373", 2 ]
								}

							}
, 							{
								"patchline" : 								{
									"destination" : [ "obj-102", 0 ],
									"midpoints" : [ 527.4952392578125, 370.174224853515625, 581.47509765625, 370.174224853515625 ],
									"source" : [ "obj-397", 0 ]
								}

							}
, 							{
								"patchline" : 								{
									"destination" : [ "obj-349", 0 ],
									"source" : [ "obj-397", 1 ]
								}

							}
, 							{
								"patchline" : 								{
									"destination" : [ "obj-406", 0 ],
									"midpoints" : [ 736.97509765625, 567.492148280143738, 785.101318359375, 567.492148280143738 ],
									"source" : [ "obj-405", 1 ]
								}

							}
, 							{
								"patchline" : 								{
									"destination" : [ "obj-413", 0 ],
									"source" : [ "obj-405", 0 ]
								}

							}
, 							{
								"patchline" : 								{
									"destination" : [ "obj-419", 0 ],
									"source" : [ "obj-406", 0 ]
								}

							}
, 							{
								"patchline" : 								{
									"destination" : [ "obj-406", 0 ],
									"midpoints" : [ 766.654708862304688, 602.929046630859375, 785.101318359375, 602.929046630859375 ],
									"source" : [ "obj-413", 1 ]
								}

							}
, 							{
								"patchline" : 								{
									"destination" : [ "obj-418", 0 ],
									"source" : [ "obj-413", 0 ]
								}

							}
, 							{
								"patchline" : 								{
									"destination" : [ "obj-413", 1 ],
									"source" : [ "obj-414", 0 ]
								}

							}
, 							{
								"patchline" : 								{
									"destination" : [ "obj-425", 0 ],
									"source" : [ "obj-417", 1 ]
								}

							}
, 							{
								"patchline" : 								{
									"destination" : [ "obj-433", 0 ],
									"source" : [ "obj-417", 0 ]
								}

							}
, 							{
								"patchline" : 								{
									"destination" : [ "obj-439", 0 ],
									"source" : [ "obj-417", 2 ]
								}

							}
, 							{
								"patchline" : 								{
									"destination" : [ "obj-323", 0 ],
									"midpoints" : [ 596.97509765625, 707.933285415172577, 219.3470458984375, 707.933285415172577 ],
									"source" : [ "obj-418", 0 ]
								}

							}
, 							{
								"patchline" : 								{
									"destination" : [ "obj-417", 0 ],
									"midpoints" : [ 607.47509765625, 668.94847571849823, 184.688720703125, 668.94847571849823 ],
									"source" : [ "obj-418", 1 ]
								}

							}
, 							{
								"patchline" : 								{
									"destination" : [ "obj-417", 0 ],
									"midpoints" : [ 785.101318359375, 668.433953106403351, 184.688720703125, 668.433953106403351 ],
									"source" : [ "obj-419", 0 ]
								}

							}
, 							{
								"patchline" : 								{
									"destination" : [ "obj-350", 1 ],
									"source" : [ "obj-424", 0 ]
								}

							}
, 							{
								"patchline" : 								{
									"destination" : [ "obj-414", 0 ],
									"midpoints" : [ 548.4952392578125, 530.56088250875473, 766.65478515625, 530.56088250875473 ],
									"order" : 0,
									"source" : [ "obj-424", 1 ]
								}

							}
, 							{
								"patchline" : 								{
									"destination" : [ "obj-443", 1 ],
									"midpoints" : [ 548.4952392578125, 658.415191650390625, 739.62548828125, 658.415191650390625 ],
									"order" : 1,
									"source" : [ "obj-424", 1 ]
								}

							}
, 							{
								"patchline" : 								{
									"destination" : [ "obj-339", 1 ],
									"midpoints" : [ 515.732391357421875, 894.093527615070343, 321.688720703125, 894.093527615070343 ],
									"source" : [ "obj-425", 2 ]
								}

							}
, 							{
								"patchline" : 								{
									"destination" : [ "obj-427", 0 ],
									"source" : [ "obj-425", 1 ]
								}

							}
, 							{
								"patchline" : 								{
									"destination" : [ "obj-430", 0 ],
									"source" : [ "obj-425", 0 ]
								}

							}
, 							{
								"patchline" : 								{
									"destination" : [ "obj-327", 1 ],
									"midpoints" : [ 449.4071044921875, 881.657745361328125, 250.8470458984375, 881.657745361328125 ],
									"source" : [ "obj-427", 0 ]
								}

							}
, 							{
								"patchline" : 								{
									"destination" : [ "obj-435", 0 ],
									"source" : [ "obj-430", 0 ]
								}

							}
, 							{
								"patchline" : 								{
									"destination" : [ "obj-322", 0 ],
									"source" : [ "obj-433", 0 ]
								}

							}
, 							{
								"patchline" : 								{
									"destination" : [ "obj-326", 0 ],
									"midpoints" : [ 195.188720703125, 771.880336821079254, 250.8470458984375, 771.880336821079254 ],
									"source" : [ "obj-433", 1 ]
								}

							}
, 							{
								"patchline" : 								{
									"destination" : [ "obj-436", 0 ],
									"source" : [ "obj-435", 0 ]
								}

							}
, 							{
								"patchline" : 								{
									"destination" : [ "obj-327", 0 ],
									"midpoints" : [ 383.0819091796875, 868.202693402767181, 184.688720703125, 868.202693402767181 ],
									"source" : [ "obj-436", 0 ]
								}

							}
, 							{
								"patchline" : 								{
									"destination" : [ "obj-440", 0 ],
									"source" : [ "obj-439", 1 ]
								}

							}
, 							{
								"patchline" : 								{
									"destination" : [ "obj-443", 0 ],
									"source" : [ "obj-439", 2 ]
								}

							}
, 							{
								"patchline" : 								{
									"destination" : [ "obj-445", 0 ],
									"source" : [ "obj-439", 0 ]
								}

							}
, 							{
								"patchline" : 								{
									"destination" : [ "obj-442", 0 ],
									"source" : [ "obj-440", 0 ]
								}

							}
, 							{
								"patchline" : 								{
									"destination" : [ "obj-327", 1 ],
									"midpoints" : [ 651.30029296875, 881.415496826171875, 250.8470458984375, 881.415496826171875 ],
									"source" : [ "obj-442", 0 ]
								}

							}
, 							{
								"patchline" : 								{
									"destination" : [ "obj-444", 0 ],
									"source" : [ "obj-443", 0 ]
								}

							}
, 							{
								"patchline" : 								{
									"destination" : [ "obj-339", 1 ],
									"midpoints" : [ 721.12548828125, 894.313018798828125, 321.688720703125, 894.313018798828125 ],
									"source" : [ "obj-444", 0 ]
								}

							}
, 							{
								"patchline" : 								{
									"destination" : [ "obj-446", 0 ],
									"source" : [ "obj-445", 0 ]
								}

							}
, 							{
								"patchline" : 								{
									"destination" : [ "obj-327", 0 ],
									"midpoints" : [ 581.47509765625, 868.748809814453125, 184.688720703125, 868.748809814453125 ],
									"source" : [ "obj-446", 0 ]
								}

							}
, 							{
								"patchline" : 								{
									"destination" : [ "obj-397", 0 ],
									"source" : [ "obj-493", 0 ]
								}

							}
, 							{
								"patchline" : 								{
									"destination" : [ "obj-289", 0 ],
									"source" : [ "obj-494", 0 ]
								}

							}
, 							{
								"patchline" : 								{
									"destination" : [ "obj-373", 0 ],
									"source" : [ "obj-495", 0 ]
								}

							}
 ]
					}
,
					"patching_rect" : [ 184.0, 260.175445556640625, 147.97369384765625, 22.0 ],
					"saved_object_attributes" : 					{
						"description" : "",
						"digest" : "",
						"globalpatchername" : "",
						"tags" : ""
					}
,
					"text" : "p where do I start?"
				}

			}
, 			{
				"box" : 				{
					"id" : "obj-492",
					"maxclass" : "newobj",
					"numinlets" : 1,
					"numoutlets" : 3,
					"outlettype" : [ "bang", "bang", "int" ],
					"patching_rect" : [ 184.0, 288.19305419921875, 55.0, 22.0 ],
					"text" : "t b b i"
				}

			}
, 			{
				"box" : 				{
					"id" : "obj-491",
					"maxclass" : "newobj",
					"numinlets" : 2,
					"numoutlets" : 1,
					"outlettype" : [ "" ],
					"patching_rect" : [ 230.0, 355.50872802734375, 100.0, 22.0 ],
					"text" : "expr ($i1-70)+$i2"
				}

			}
, 			{
				"box" : 				{
					"id" : "obj-348",
					"maxclass" : "newobj",
					"numinlets" : 1,
					"numoutlets" : 3,
					"outlettype" : [ "", "", "" ],
					"patching_rect" : [ 184.0, 228.666656494140625, 362.350830078125, 22.0 ],
					"text" : "t l l l"
				}

			}
, 			{
				"box" : 				{
					"id" : "obj-329",
					"maxclass" : "button",
					"numinlets" : 1,
					"numoutlets" : 1,
					"outlettype" : [ "bang" ],
					"parameter_enable" : 0,
					"patching_rect" : [ 4067.0, 2400.0, 24.0, 24.0 ]
				}

			}
, 			{
				"box" : 				{
					"id" : "obj-288",
					"maxclass" : "newobj",
					"numinlets" : 2,
					"numoutlets" : 2,
					"outlettype" : [ "", "" ],
					"patching_rect" : [ 148.0, 199.600006103515625, 55.0, 22.0 ],
					"text" : "zl slice 2"
				}

			}
, 			{
				"box" : 				{
					"id" : "obj-290",
					"maxclass" : "newobj",
					"numinlets" : 1,
					"numoutlets" : 2,
					"outlettype" : [ "", "" ],
					"patching_rect" : [ 148.0, 168.600006103515625, 119.486846923828125, 22.0 ],
					"text" : "t l l"
				}

			}
, 			{
				"box" : 				{
					"id" : "obj-24",
					"maxclass" : "comment",
					"numinlets" : 1,
					"numoutlets" : 0,
					"patching_rect" : [ 13.5, 813.0, 59.0, 20.0 ],
					"text" : "BANGER"
				}

			}
, 			{
				"box" : 				{
					"id" : "obj-21",
					"maxclass" : "newobj",
					"numinlets" : 2,
					"numoutlets" : 2,
					"outlettype" : [ "", "" ],
					"patching_rect" : [ 68.0, 878.0, 135.0, 22.0 ],
					"text" : "zl reg"
				}

			}
, 			{
				"box" : 				{
					"id" : "obj-20",
					"maxclass" : "newobj",
					"numinlets" : 1,
					"numoutlets" : 2,
					"outlettype" : [ "bang", "float" ],
					"patching_rect" : [ 302.47369384765625, 103.333328247070312, 29.5, 22.0 ],
					"text" : "t b f"
				}

			}
, 			{
				"box" : 				{
					"id" : "obj-19",
					"maxclass" : "newobj",
					"numinlets" : 2,
					"numoutlets" : 2,
					"outlettype" : [ "", "" ],
					"patching_rect" : [ 148.0, 139.333328247070312, 38.0, 22.0 ],
					"text" : "zl reg"
				}

			}
, 			{
				"box" : 				{
					"id" : "obj-18",
					"maxclass" : "newobj",
					"numinlets" : 2,
					"numoutlets" : 2,
					"outlettype" : [ "", "" ],
					"patching_rect" : [ 68.0, 67.333328247070312, 99.0, 22.0 ],
					"text" : "routepass zlclear"
				}

			}
, 			{
				"box" : 				{
					"id" : "obj-17",
					"maxclass" : "newobj",
					"numinlets" : 2,
					"numoutlets" : 2,
					"outlettype" : [ "", "" ],
					"patching_rect" : [ 148.0, 103.333328247070312, 60.0, 22.0 ],
					"text" : "zl change"
				}

			}
, 			{
				"box" : 				{
					"id" : "obj-9",
					"maxclass" : "newobj",
					"numinlets" : 1,
					"numoutlets" : 0,
					"patching_rect" : [ 68.0, 917.0, 35.0, 22.0 ],
					"text" : "out 1"
				}

			}
, 			{
				"box" : 				{
					"id" : "obj-6",
					"maxclass" : "newobj",
					"numinlets" : 1,
					"numoutlets" : 1,
					"outlettype" : [ "" ],
					"patching_rect" : [ 302.47369384765625, 34.333331108093262, 28.0, 22.0 ],
					"text" : "in 2"
				}

			}
, 			{
				"box" : 				{
					"id" : "obj-1",
					"maxclass" : "newobj",
					"numinlets" : 1,
					"numoutlets" : 1,
					"outlettype" : [ "" ],
					"patching_rect" : [ 68.0, 34.333331108093262, 28.0, 22.0 ],
					"saved_object_attributes" : 					{
						"attr_comment" : ""
					}
,
					"text" : "in 1"
				}

			}
 ],
		"lines" : [ 			{
				"patchline" : 				{
					"destination" : [ "obj-18", 0 ],
					"source" : [ "obj-1", 0 ]
				}

			}
, 			{
				"patchline" : 				{
					"destination" : [ "obj-46", 0 ],
					"source" : [ "obj-10", 0 ]
				}

			}
, 			{
				"patchline" : 				{
					"destination" : [ "obj-2", 0 ],
					"source" : [ "obj-11", 0 ]
				}

			}
, 			{
				"patchline" : 				{
					"destination" : [ "obj-33", 1 ],
					"midpoints" : [ 329.75, 802.0, 221.0, 802.0, 221.0, 838.0, 239.5, 838.0 ],
					"source" : [ "obj-11", 1 ]
				}

			}
, 			{
				"patchline" : 				{
					"destination" : [ "obj-11", 1 ],
					"source" : [ "obj-12", 0 ]
				}

			}
, 			{
				"patchline" : 				{
					"destination" : [ "obj-2", 1 ],
					"source" : [ "obj-12", 1 ]
				}

			}
, 			{
				"patchline" : 				{
					"destination" : [ "obj-21", 0 ],
					"midpoints" : [ 38.5, 867.982452392578125, 77.5, 867.982452392578125 ],
					"source" : [ "obj-13", 0 ]
				}

			}
, 			{
				"patchline" : 				{
					"destination" : [ "obj-22", 0 ],
					"source" : [ "obj-14", 1 ]
				}

			}
, 			{
				"patchline" : 				{
					"destination" : [ "obj-34", 0 ],
					"midpoints" : [ 419.5, 540.5, 363.75, 540.5 ],
					"order" : 1,
					"source" : [ "obj-14", 0 ]
				}

			}
, 			{
				"patchline" : 				{
					"destination" : [ "obj-8", 0 ],
					"order" : 0,
					"source" : [ "obj-14", 0 ]
				}

			}
, 			{
				"patchline" : 				{
					"destination" : [ "obj-34", 0 ],
					"midpoints" : [ 485.5, 584.0, 468.000000536441803, 584.0, 468.000000536441803, 540.0, 363.75, 540.0 ],
					"order" : 1,
					"source" : [ "obj-15", 0 ]
				}

			}
, 			{
				"patchline" : 				{
					"destination" : [ "obj-8", 0 ],
					"midpoints" : [ 485.5, 584.491261839866638, 419.5, 584.491261839866638 ],
					"order" : 0,
					"source" : [ "obj-15", 0 ]
				}

			}
, 			{
				"patchline" : 				{
					"destination" : [ "obj-19", 0 ],
					"source" : [ "obj-17", 0 ]
				}

			}
, 			{
				"patchline" : 				{
					"destination" : [ "obj-17", 0 ],
					"source" : [ "obj-18", 1 ]
				}

			}
, 			{
				"patchline" : 				{
					"destination" : [ "obj-17", 0 ],
					"midpoints" : [ 77.5, 94.333328247070312, 157.5, 94.333328247070312 ],
					"order" : 1,
					"source" : [ "obj-18", 0 ]
				}

			}
, 			{
				"patchline" : 				{
					"destination" : [ "obj-19", 0 ],
					"midpoints" : [ 77.5, 131.333331108093262, 157.5, 131.333331108093262 ],
					"order" : 0,
					"source" : [ "obj-18", 0 ]
				}

			}
, 			{
				"patchline" : 				{
					"destination" : [ "obj-21", 0 ],
					"order" : 2,
					"source" : [ "obj-18", 0 ]
				}

			}
, 			{
				"patchline" : 				{
					"destination" : [ "obj-290", 0 ],
					"source" : [ "obj-19", 0 ]
				}

			}
, 			{
				"patchline" : 				{
					"destination" : [ "obj-33", 1 ],
					"source" : [ "obj-2", 0 ]
				}

			}
, 			{
				"patchline" : 				{
					"destination" : [ "obj-19", 0 ],
					"midpoints" : [ 311.97369384765625, 131.833328247070312, 157.5, 131.833328247070312 ],
					"source" : [ "obj-20", 0 ]
				}

			}
, 			{
				"patchline" : 				{
					"destination" : [ "obj-497", 2 ],
					"source" : [ "obj-20", 1 ]
				}

			}
, 			{
				"patchline" : 				{
					"destination" : [ "obj-9", 0 ],
					"source" : [ "obj-21", 0 ]
				}

			}
, 			{
				"patchline" : 				{
					"destination" : [ "obj-15", 0 ],
					"source" : [ "obj-22", 0 ]
				}

			}
, 			{
				"patchline" : 				{
					"destination" : [ "obj-348", 0 ],
					"source" : [ "obj-288", 1 ]
				}

			}
, 			{
				"patchline" : 				{
					"destination" : [ "obj-288", 0 ],
					"source" : [ "obj-290", 0 ]
				}

			}
, 			{
				"patchline" : 				{
					"destination" : [ "obj-497", 1 ],
					"source" : [ "obj-290", 1 ]
				}

			}
, 			{
				"patchline" : 				{
					"destination" : [ "obj-11", 0 ],
					"source" : [ "obj-3", 0 ]
				}

			}
, 			{
				"patchline" : 				{
					"destination" : [ "obj-12", 0 ],
					"midpoints" : [ 395.75, 681.31585693359375, 329.75, 681.31585693359375 ],
					"source" : [ "obj-32", 1 ]
				}

			}
, 			{
				"patchline" : 				{
					"destination" : [ "obj-58", 0 ],
					"source" : [ "obj-32", 0 ]
				}

			}
, 			{
				"patchline" : 				{
					"destination" : [ "obj-21", 1 ],
					"source" : [ "obj-33", 0 ]
				}

			}
, 			{
				"patchline" : 				{
					"destination" : [ "obj-37", 0 ],
					"source" : [ "obj-34", 0 ]
				}

			}
, 			{
				"patchline" : 				{
					"destination" : [ "obj-4", 1 ],
					"midpoints" : [ 365.1754150390625, 418.412307739257812, 258.5, 418.412307739257812 ],
					"source" : [ "obj-348", 1 ]
				}

			}
, 			{
				"patchline" : 				{
					"destination" : [ "obj-497", 0 ],
					"source" : [ "obj-348", 0 ]
				}

			}
, 			{
				"patchline" : 				{
					"destination" : [ "obj-7", 0 ],
					"source" : [ "obj-348", 2 ]
				}

			}
, 			{
				"patchline" : 				{
					"destination" : [ "obj-32", 0 ],
					"source" : [ "obj-37", 0 ]
				}

			}
, 			{
				"patchline" : 				{
					"destination" : [ "obj-3", 0 ],
					"source" : [ "obj-4", 0 ]
				}

			}
, 			{
				"patchline" : 				{
					"destination" : [ "obj-12", 0 ],
					"source" : [ "obj-46", 0 ]
				}

			}
, 			{
				"patchline" : 				{
					"destination" : [ "obj-32", 1 ],
					"source" : [ "obj-46", 1 ]
				}

			}
, 			{
				"patchline" : 				{
					"destination" : [ "obj-539", 0 ],
					"source" : [ "obj-491", 0 ]
				}

			}
, 			{
				"patchline" : 				{
					"destination" : [ "obj-33", 0 ],
					"source" : [ "obj-492", 0 ]
				}

			}
, 			{
				"patchline" : 				{
					"destination" : [ "obj-491", 1 ],
					"midpoints" : [ 229.5, 321.017557382583618, 320.5, 321.017557382583618 ],
					"source" : [ "obj-492", 2 ]
				}

			}
, 			{
				"patchline" : 				{
					"destination" : [ "obj-537", 0 ],
					"source" : [ "obj-492", 1 ]
				}

			}
, 			{
				"patchline" : 				{
					"destination" : [ "obj-2", 2 ],
					"midpoints" : [ 322.47369384765625, 290.0, 573.0, 290.0, 573.0, 798.0, 471.5, 798.0 ],
					"source" : [ "obj-497", 1 ]
				}

			}
, 			{
				"patchline" : 				{
					"destination" : [ "obj-492", 0 ],
					"source" : [ "obj-497", 0 ]
				}

			}
, 			{
				"patchline" : 				{
					"destination" : [ "obj-14", 0 ],
					"source" : [ "obj-5", 0 ]
				}

			}
, 			{
				"patchline" : 				{
					"destination" : [ "obj-491", 0 ],
					"source" : [ "obj-537", 2 ]
				}

			}
, 			{
				"patchline" : 				{
					"destination" : [ "obj-10", 0 ],
					"source" : [ "obj-539", 1 ]
				}

			}
, 			{
				"patchline" : 				{
					"destination" : [ "obj-4", 0 ],
					"source" : [ "obj-539", 0 ]
				}

			}
, 			{
				"patchline" : 				{
					"destination" : [ "obj-46", 1 ],
					"midpoints" : [ 509.5, 417.71051025390625, 395.75, 417.71051025390625 ],
					"source" : [ "obj-539", 3 ]
				}

			}
, 			{
				"patchline" : 				{
					"destination" : [ "obj-5", 0 ],
					"source" : [ "obj-539", 2 ]
				}

			}
, 			{
				"patchline" : 				{
					"destination" : [ "obj-12", 0 ],
					"midpoints" : [ 363.75, 681.473785400390625, 329.75, 681.473785400390625 ],
					"source" : [ "obj-58", 0 ]
				}

			}
, 			{
				"patchline" : 				{
					"destination" : [ "obj-20", 0 ],
					"source" : [ "obj-6", 0 ]
				}

			}
, 			{
				"patchline" : 				{
					"destination" : [ "obj-10", 1 ],
					"midpoints" : [ 536.850830078125, 427.666702270507812, 340.25, 427.666702270507812 ],
					"order" : 2,
					"source" : [ "obj-7", 0 ]
				}

			}
, 			{
				"patchline" : 				{
					"destination" : [ "obj-15", 1 ],
					"midpoints" : [ 536.850830078125, 547.587722778320312, 496.0, 547.587722778320312 ],
					"order" : 0,
					"source" : [ "obj-7", 0 ]
				}

			}
, 			{
				"patchline" : 				{
					"destination" : [ "obj-5", 1 ],
					"midpoints" : [ 536.850830078125, 427.666702270507812, 430.0, 427.666702270507812 ],
					"order" : 1,
					"source" : [ "obj-7", 0 ]
				}

			}
, 			{
				"patchline" : 				{
					"destination" : [ "obj-3", 1 ],
					"midpoints" : [ 419.5, 719.377269268035889, 257.5, 719.377269268035889 ],
					"source" : [ "obj-8", 0 ]
				}

			}
 ],
		"styles" : [ 			{
				"name" : "AudioStatus_Menu",
				"default" : 				{
					"bgfillcolor" : 					{
						"type" : "color",
						"color" : [ 0.294118, 0.313726, 0.337255, 1 ],
						"color1" : [ 0.454902, 0.462745, 0.482353, 0.0 ],
						"color2" : [ 0.290196, 0.309804, 0.301961, 1.0 ],
						"angle" : 270.0,
						"proportion" : 0.39,
						"autogradient" : 0
					}

				}
,
				"parentstyle" : "",
				"multi" : 0
			}
, 			{
				"name" : "ksliderWhite",
				"default" : 				{
					"color" : [ 1.0, 1.0, 1.0, 1.0 ]
				}
,
				"parentstyle" : "",
				"multi" : 0
			}
, 			{
				"name" : "newobjBlue-1",
				"default" : 				{
					"accentcolor" : [ 0.317647, 0.654902, 0.976471, 1.0 ]
				}
,
				"parentstyle" : "",
				"multi" : 0
			}
, 			{
				"name" : "newobjBrown-1",
				"default" : 				{
					"accentcolor" : [ 0.654902, 0.572549, 0.376471, 1.0 ]
				}
,
				"parentstyle" : "",
				"multi" : 0
			}
, 			{
				"name" : "newobjCyan-1",
				"default" : 				{
					"accentcolor" : [ 0.029546, 0.773327, 0.821113, 1.0 ]
				}
,
				"parentstyle" : "",
				"multi" : 0
			}
, 			{
				"name" : "newobjGreen-1",
				"default" : 				{
					"accentcolor" : [ 0.0, 0.533333, 0.168627, 1.0 ]
				}
,
				"parentstyle" : "",
				"multi" : 0
			}
, 			{
				"name" : "newobjYellow-1",
				"default" : 				{
					"accentcolor" : [ 0.82517, 0.78181, 0.059545, 1.0 ],
					"fontsize" : [ 12.059008 ]
				}
,
				"parentstyle" : "",
				"multi" : 0
			}
, 			{
				"name" : "numberGold-1",
				"default" : 				{
					"accentcolor" : [ 0.764706, 0.592157, 0.101961, 1.0 ]
				}
,
				"parentstyle" : "",
				"multi" : 0
			}
, 			{
				"name" : "rsliderGold",
				"default" : 				{
					"color" : [ 0.646639, 0.821777, 0.854593, 1.0 ],
					"bgcolor" : [ 0.764706, 0.592157, 0.101961, 1.0 ]
				}
,
				"parentstyle" : "",
				"multi" : 0
			}
 ]
	}

}
